<?xml version="1.0" encoding="UTF-8"?>
<svg xmlns="http://www.w3.org/2000/svg" xmlns:xlink="http://www.w3.org/1999/xlink" width="612pt" height="792pt" viewBox="0 0 612 792" version="1.1">
<g id="surface1">
<path style=" stroke:none;fill-rule:nonzero;fill:rgb(59.999084%,79.598999%,34.899902%);fill-opacity:1;" d="M 395.140625 499.925781 L 409.714844 499.925781 L 409.714844 485.199219 L 395.140625 485.199219 L 395.140625 499.925781 "/>
<path style=" stroke:none;fill-rule:nonzero;fill:rgb(100%,100%,100%);fill-opacity:1;" d="M 397.027344 498.089844 L 397.222656 498.089844 L 397.222656 497.027344 L 397.488281 497.027344 L 397.546875 496.875 L 397.222656 496.875 L 397.222656 496.652344 C 397.222656 496.515625 397.28125 496.433594 397.410156 496.433594 C 397.457031 496.433594 397.503906 496.449219 397.546875 496.464844 L 397.585938 496.308594 C 397.527344 496.285156 397.453125 496.269531 397.394531 496.269531 C 397.21875 496.269531 397.027344 496.363281 397.027344 496.660156 L 397.027344 496.875 L 396.859375 496.875 L 396.859375 497.027344 L 397.027344 497.027344 "/>
<path style=" stroke:none;fill-rule:evenodd;fill:rgb(100%,100%,100%);fill-opacity:1;" d="M 398.261719 497.953125 C 398.027344 497.953125 397.878906 497.757813 397.878906 497.480469 C 397.878906 497.199219 398.027344 497.007813 398.261719 497.007813 C 398.496094 497.007813 398.644531 497.199219 398.644531 497.480469 C 398.644531 497.757813 398.496094 497.953125 398.261719 497.953125 M 398.261719 498.117188 C 398.613281 498.117188 398.847656 497.835938 398.847656 497.480469 C 398.847656 497.125 398.613281 496.84375 398.261719 496.84375 C 397.902344 496.84375 397.679688 497.125 397.679688 497.480469 C 397.679688 497.835938 397.910156 498.117188 398.261719 498.117188 "/>
<path style=" stroke:none;fill-rule:nonzero;fill:rgb(100%,100%,100%);fill-opacity:1;" d="M 399.125 498.089844 L 399.324219 498.089844 L 399.324219 497.195313 C 399.445313 497.074219 399.535156 497.019531 399.628906 497.019531 C 399.671875 497.019531 399.703125 497.03125 399.734375 497.046875 L 399.804688 496.875 C 399.777344 496.855469 399.722656 496.84375 399.671875 496.84375 C 399.558594 496.84375 399.453125 496.882813 399.3125 497.027344 L 399.289063 496.875 L 399.125 496.875 "/>
<path style=" stroke:none;fill-rule:nonzero;fill:rgb(100%,100%,100%);fill-opacity:1;" d="M 400.480469 498.011719 C 400.5625 498.0625 400.691406 498.117188 400.863281 498.117188 C 401.121094 498.117188 401.324219 498 401.324219 497.757813 C 401.324219 497.347656 400.734375 497.441406 400.734375 497.171875 C 400.734375 497.039063 400.855469 497 400.972656 497 C 401.097656 497 401.195313 497.03125 401.277344 497.066406 L 401.277344 496.898438 C 401.195313 496.871094 401.085938 496.84375 400.96875 496.84375 C 400.6875 496.84375 400.539063 496.992188 400.539063 497.179688 C 400.539063 497.582031 401.132813 497.496094 401.132813 497.761719 C 401.132813 497.898438 401.007813 497.957031 400.863281 497.957031 C 400.714844 497.957031 400.617188 497.910156 400.546875 497.867188 "/>
<path style=" stroke:none;fill-rule:nonzero;fill:rgb(100%,100%,100%);fill-opacity:1;" d="M 401.972656 498.117188 C 402.136719 498.117188 402.277344 498.042969 402.390625 497.949219 L 402.425781 498.089844 L 402.605469 498.089844 C 402.589844 498.027344 402.578125 497.914063 402.578125 497.679688 L 402.578125 496.875 L 402.382813 496.875 L 402.382813 497.777344 C 402.3125 497.863281 402.171875 497.949219 402.023438 497.949219 C 401.917969 497.949219 401.847656 497.90625 401.820313 497.8125 C 401.796875 497.761719 401.796875 497.703125 401.796875 497.621094 L 401.796875 496.875 L 401.597656 496.875 L 401.597656 497.667969 C 401.597656 497.761719 401.605469 497.820313 401.632813 497.890625 C 401.691406 498.0625 401.847656 498.117188 401.972656 498.117188 "/>
<path style=" stroke:none;fill-rule:nonzero;fill:rgb(100%,100%,100%);fill-opacity:1;" d="M 403.480469 498.117188 C 403.632813 498.117188 403.78125 498.0625 403.867188 498.007813 L 403.808594 497.871094 C 403.734375 497.910156 403.640625 497.953125 403.503906 497.953125 C 403.246094 497.953125 403.082031 497.78125 403.082031 497.480469 C 403.082031 497.203125 403.253906 497.003906 403.519531 497.003906 C 403.644531 497.003906 403.746094 497.035156 403.828125 497.085938 L 403.828125 496.917969 C 403.746094 496.878906 403.632813 496.84375 403.511719 496.84375 C 403.117188 496.84375 402.882813 497.140625 402.882813 497.492188 C 402.882813 497.835938 403.09375 498.117188 403.480469 498.117188 "/>
<path style=" stroke:none;fill-rule:nonzero;fill:rgb(100%,100%,100%);fill-opacity:1;" d="M 404.613281 498.117188 C 404.773438 498.117188 404.914063 498.0625 405.007813 498.007813 L 404.941406 497.871094 C 404.867188 497.910156 404.773438 497.953125 404.644531 497.953125 C 404.382813 497.953125 404.21875 497.78125 404.21875 497.480469 C 404.21875 497.203125 404.382813 497.003906 404.652344 497.003906 C 404.777344 497.003906 404.878906 497.035156 404.960938 497.085938 L 404.960938 496.917969 C 404.882813 496.878906 404.773438 496.84375 404.644531 496.84375 C 404.253906 496.84375 404.015625 497.140625 404.015625 497.492188 C 404.015625 497.835938 404.226563 498.117188 404.613281 498.117188 "/>
<path style=" stroke:none;fill-rule:evenodd;fill:rgb(100%,100%,100%);fill-opacity:1;" d="M 405.359375 497.367188 C 405.359375 497.164063 405.480469 496.996094 405.671875 496.996094 C 405.871094 496.996094 405.964844 497.183594 405.96875 497.367188 M 405.746094 498.117188 C 405.886719 498.117188 406.039063 498.074219 406.152344 498.007813 L 406.085938 497.875 C 406 497.921875 405.894531 497.957031 405.777344 497.957031 C 405.507813 497.957031 405.359375 497.761719 405.351563 497.515625 L 406.175781 497.515625 L 406.175781 497.46875 C 406.175781 497.085938 405.992188 496.84375 405.671875 496.84375 C 405.363281 496.84375 405.152344 497.097656 405.152344 497.46875 C 405.152344 497.820313 405.347656 498.117188 405.746094 498.117188 "/>
<path style=" stroke:none;fill-rule:nonzero;fill:rgb(100%,100%,100%);fill-opacity:1;" d="M 406.351563 498.011719 C 406.433594 498.0625 406.566406 498.117188 406.730469 498.117188 C 406.992188 498.117188 407.203125 498 407.203125 497.757813 C 407.203125 497.347656 406.605469 497.441406 406.605469 497.171875 C 406.605469 497.039063 406.726563 497 406.851563 497 C 406.972656 497 407.066406 497.03125 407.15625 497.066406 L 407.15625 496.898438 C 407.074219 496.871094 406.960938 496.84375 406.839844 496.84375 C 406.5625 496.84375 406.410156 496.992188 406.410156 497.179688 C 406.410156 497.582031 407.003906 497.496094 407.003906 497.761719 C 407.003906 497.898438 406.878906 497.957031 406.730469 497.957031 C 406.59375 497.957031 406.492188 497.910156 406.414063 497.867188 "/>
<path style=" stroke:none;fill-rule:nonzero;fill:rgb(100%,100%,100%);fill-opacity:1;" d="M 407.367188 498.011719 C 407.449219 498.0625 407.578125 498.117188 407.746094 498.117188 C 408.007813 498.117188 408.210938 498 408.210938 497.757813 C 408.210938 497.347656 407.617188 497.441406 407.617188 497.171875 C 407.617188 497.039063 407.742188 497 407.859375 497 C 407.984375 497 408.082031 497.03125 408.164063 497.066406 L 408.164063 496.898438 C 408.082031 496.871094 407.972656 496.84375 407.855469 496.84375 C 407.570313 496.84375 407.425781 496.992188 407.425781 497.179688 C 407.425781 497.582031 408.019531 497.496094 408.019531 497.761719 C 408.019531 497.898438 407.894531 497.957031 407.746094 497.957031 C 407.605469 497.957031 407.503906 497.910156 407.429688 497.867188 "/>
<path style=" stroke:none;fill-rule:nonzero;fill:rgb(100%,100%,100%);fill-opacity:1;" d="M 396.828125 494.332031 C 396.90625 494.378906 397.039063 494.4375 397.203125 494.4375 C 397.464844 494.4375 397.675781 494.316406 397.675781 494.078125 C 397.675781 493.664063 397.074219 493.757813 397.074219 493.488281 C 397.074219 493.355469 397.199219 493.320313 397.320313 493.320313 C 397.445313 493.320313 397.539063 493.351563 397.628906 493.386719 L 397.628906 493.21875 C 397.546875 493.1875 397.433594 493.160156 397.3125 493.160156 C 397.035156 493.160156 396.886719 493.3125 396.886719 493.496094 C 396.886719 493.898438 397.476563 493.816406 397.476563 494.078125 C 397.476563 494.21875 397.351563 494.273438 397.203125 494.273438 C 397.0625 494.273438 396.964844 494.230469 396.886719 494.1875 "/>
<path style=" stroke:none;fill-rule:evenodd;fill:rgb(100%,100%,100%);fill-opacity:1;" d="M 398.460938 494.273438 C 398.226563 494.273438 398.078125 494.078125 398.078125 493.800781 C 398.078125 493.519531 398.226563 493.324219 398.460938 493.324219 C 398.691406 493.324219 398.835938 493.519531 398.835938 493.800781 C 398.835938 494.078125 398.691406 494.273438 398.460938 494.273438 M 398.460938 494.4375 C 398.8125 494.4375 399.046875 494.152344 399.046875 493.800781 C 399.046875 493.441406 398.8125 493.160156 398.460938 493.160156 C 398.101563 493.160156 397.875 493.441406 397.875 493.800781 C 397.875 494.152344 398.109375 494.4375 398.460938 494.4375 "/>
<path style=" stroke:none;fill-rule:nonzero;fill:rgb(100%,100%,100%);fill-opacity:1;" d="M 399.335938 494.1875 C 399.335938 494.335938 399.410156 494.425781 399.570313 494.425781 C 399.628906 494.425781 399.699219 494.410156 399.746094 494.386719 L 399.703125 494.238281 C 399.6875 494.246094 399.648438 494.257813 399.628906 494.257813 C 399.558594 494.257813 399.53125 494.230469 399.53125 494.128906 L 399.53125 492.589844 L 399.335938 492.589844 "/>
<path style=" stroke:none;fill-rule:nonzero;fill:rgb(100%,100%,100%);fill-opacity:1;" d="M 400.339844 494.4375 C 400.511719 494.4375 400.652344 494.363281 400.761719 494.269531 L 400.796875 494.410156 L 400.972656 494.410156 C 400.960938 494.347656 400.949219 494.234375 400.949219 493.996094 L 400.949219 493.191406 L 400.757813 493.191406 L 400.757813 494.09375 C 400.6875 494.179688 400.546875 494.269531 400.398438 494.269531 C 400.292969 494.269531 400.222656 494.226563 400.1875 494.132813 C 400.171875 494.078125 400.171875 494.023438 400.171875 493.941406 L 400.171875 493.191406 L 399.96875 493.191406 L 399.96875 493.988281 C 399.96875 494.078125 399.980469 494.144531 400.003906 494.210938 C 400.0625 494.382813 400.222656 494.4375 400.339844 494.4375 "/>
<path style=" stroke:none;fill-rule:nonzero;fill:rgb(100%,100%,100%);fill-opacity:1;" d="M 401.703125 494.4375 C 401.832031 494.4375 401.941406 494.394531 402.019531 494.339844 L 401.953125 494.207031 C 401.902344 494.238281 401.832031 494.273438 401.742188 494.273438 C 401.660156 494.273438 401.613281 494.226563 401.613281 494.121094 L 401.613281 493.347656 L 401.929688 493.347656 L 401.988281 493.191406 L 401.613281 493.191406 L 401.613281 492.855469 L 401.421875 492.917969 L 401.421875 493.191406 L 401.203125 493.191406 L 401.203125 493.347656 L 401.421875 493.347656 L 401.421875 494.152344 C 401.421875 494.332031 401.519531 494.4375 401.703125 494.4375 "/>
<path style=" stroke:none;fill-rule:evenodd;fill:rgb(100%,100%,100%);fill-opacity:1;" d="M 402.378906 492.917969 C 402.453125 492.917969 402.507813 492.863281 402.507813 492.792969 C 402.507813 492.71875 402.453125 492.664063 402.378906 492.664063 C 402.296875 492.664063 402.242188 492.722656 402.242188 492.792969 C 402.242188 492.863281 402.296875 492.917969 402.378906 492.917969 M 402.277344 494.410156 L 402.472656 494.410156 L 402.472656 493.191406 L 402.277344 493.191406 L 402.277344 494.410156 "/>
<path style=" stroke:none;fill-rule:evenodd;fill:rgb(100%,100%,100%);fill-opacity:1;" d="M 403.363281 494.273438 C 403.132813 494.273438 402.988281 494.078125 402.988281 493.800781 C 402.988281 493.519531 403.132813 493.324219 403.367188 493.324219 C 403.597656 493.324219 403.746094 493.519531 403.746094 493.800781 C 403.746094 494.078125 403.597656 494.273438 403.363281 494.273438 M 403.363281 494.4375 C 403.722656 494.4375 403.949219 494.152344 403.949219 493.800781 C 403.949219 493.441406 403.722656 493.160156 403.367188 493.160156 C 403.011719 493.160156 402.78125 493.441406 402.78125 493.800781 C 402.78125 494.152344 403.011719 494.4375 403.363281 494.4375 "/>
<path style=" stroke:none;fill-rule:nonzero;fill:rgb(100%,100%,100%);fill-opacity:1;" d="M 404.230469 494.410156 L 404.425781 494.410156 L 404.425781 493.515625 C 404.542969 493.414063 404.671875 493.332031 404.8125 493.332031 C 404.996094 493.332031 405.042969 493.472656 405.042969 493.652344 L 405.042969 494.410156 L 405.234375 494.410156 L 405.234375 493.589844 C 405.234375 493.28125 405.058594 493.160156 404.859375 493.160156 C 404.703125 493.160156 404.5625 493.238281 404.421875 493.351563 L 404.394531 493.191406 L 404.230469 493.191406 "/>
<path style=" stroke:none;fill-rule:nonzero;fill:rgb(100%,100%,100%);fill-opacity:1;" d="M 405.476563 494.332031 C 405.558594 494.378906 405.691406 494.4375 405.859375 494.4375 C 406.117188 494.4375 406.328125 494.316406 406.328125 494.078125 C 406.328125 493.664063 405.730469 493.757813 405.730469 493.488281 C 405.730469 493.355469 405.851563 493.320313 405.96875 493.320313 C 406.09375 493.320313 406.191406 493.351563 406.273438 493.386719 L 406.273438 493.21875 C 406.191406 493.1875 406.085938 493.160156 405.964844 493.160156 C 405.683594 493.160156 405.535156 493.3125 405.535156 493.496094 C 405.535156 493.898438 406.128906 493.816406 406.128906 494.078125 C 406.128906 494.21875 406.003906 494.273438 405.859375 494.273438 C 405.71875 494.273438 405.609375 494.230469 405.539063 494.1875 "/>
<path style=" stroke:none;fill-rule:nonzero;fill:rgb(100%,100%,100%);fill-opacity:1;" d="M 396.828125 490.644531 C 396.90625 490.695313 397.039063 490.75 397.203125 490.75 C 397.464844 490.75 397.675781 490.632813 397.675781 490.390625 C 397.675781 489.980469 397.074219 490.074219 397.074219 489.804688 C 397.074219 489.671875 397.199219 489.632813 397.320313 489.632813 C 397.445313 489.632813 397.539063 489.664063 397.628906 489.699219 L 397.628906 489.535156 C 397.546875 489.503906 397.433594 489.476563 397.3125 489.476563 C 397.035156 489.476563 396.886719 489.628906 396.886719 489.8125 C 396.886719 490.214844 397.476563 490.128906 397.476563 490.394531 C 397.476563 490.535156 397.351563 490.589844 397.203125 490.589844 C 397.0625 490.589844 396.964844 490.542969 396.886719 490.5 "/>
<path style=" stroke:none;fill-rule:evenodd;fill:rgb(100%,100%,100%);fill-opacity:1;" d="M 398.066406 489.234375 C 398.144531 489.234375 398.203125 489.179688 398.203125 489.109375 C 398.203125 489.03125 398.148438 488.980469 398.066406 488.980469 C 397.992188 488.980469 397.9375 489.035156 397.9375 489.109375 C 397.9375 489.179688 397.992188 489.234375 398.066406 489.234375 M 397.972656 490.726563 L 398.167969 490.726563 L 398.167969 489.507813 L 397.972656 489.507813 L 397.972656 490.726563 "/>
<path style=" stroke:none;fill-rule:nonzero;fill:rgb(100%,100%,100%);fill-opacity:1;" d="M 398.542969 490.726563 L 398.742188 490.726563 L 398.742188 489.828125 C 398.859375 489.726563 398.988281 489.644531 399.128906 489.644531 C 399.308594 489.644531 399.347656 489.785156 399.347656 489.964844 L 399.347656 490.726563 L 399.546875 490.726563 L 399.546875 489.902344 C 399.546875 489.878906 399.539063 489.851563 399.539063 489.828125 C 399.660156 489.726563 399.792969 489.644531 399.929688 489.644531 C 400.105469 489.644531 400.152344 489.785156 400.152344 489.964844 L 400.152344 490.726563 L 400.347656 490.726563 L 400.347656 489.902344 C 400.347656 489.605469 400.175781 489.476563 399.96875 489.476563 C 399.8125 489.476563 399.648438 489.558594 399.5 489.6875 C 399.441406 489.546875 399.316406 489.476563 399.171875 489.476563 C 399.011719 489.476563 398.867188 489.554688 398.738281 489.664063 L 398.714844 489.507813 L 398.542969 489.507813 "/>
<path style=" stroke:none;fill-rule:evenodd;fill:rgb(100%,100%,100%);fill-opacity:1;" d="M 400.886719 490.535156 L 400.886719 489.671875 C 400.957031 489.648438 401.027344 489.640625 401.101563 489.640625 C 401.355469 489.640625 401.542969 489.785156 401.542969 490.105469 C 401.542969 490.394531 401.390625 490.589844 401.101563 490.589844 C 401.019531 490.589844 400.960938 490.570313 400.886719 490.535156 M 400.691406 491.332031 L 400.886719 491.332031 L 400.886719 490.703125 C 400.949219 490.730469 401.027344 490.75 401.109375 490.75 C 401.472656 490.75 401.746094 490.507813 401.746094 490.109375 C 401.746094 489.710938 401.507813 489.476563 401.109375 489.476563 C 400.96875 489.476563 400.820313 489.503906 400.691406 489.550781 L 400.691406 491.332031 "/>
<path style=" stroke:none;fill-rule:nonzero;fill:rgb(100%,100%,100%);fill-opacity:1;" d="M 402.042969 490.503906 C 402.042969 490.648438 402.117188 490.738281 402.277344 490.738281 C 402.335938 490.738281 402.40625 490.726563 402.453125 490.703125 L 402.410156 490.554688 C 402.394531 490.5625 402.355469 490.570313 402.335938 490.570313 C 402.265625 490.570313 402.234375 490.542969 402.234375 490.441406 L 402.234375 488.902344 L 402.042969 488.902344 "/>
<path style=" stroke:none;fill-rule:evenodd;fill:rgb(100%,100%,100%);fill-opacity:1;" d="M 402.8125 490.003906 C 402.816406 489.800781 402.933594 489.632813 403.128906 489.632813 C 403.328125 489.632813 403.421875 489.816406 403.421875 490.003906 M 403.203125 490.75 C 403.34375 490.75 403.496094 490.710938 403.605469 490.640625 L 403.546875 490.507813 C 403.457031 490.554688 403.351563 490.589844 403.234375 490.589844 C 402.964844 490.589844 402.816406 490.398438 402.8125 490.148438 L 403.632813 490.148438 L 403.632813 490.101563 C 403.632813 489.71875 403.449219 489.476563 403.128906 489.476563 C 402.824219 489.476563 402.609375 489.730469 402.609375 490.101563 C 402.609375 490.457031 402.804688 490.75 403.203125 490.75 "/>
<path style=" stroke:none;fill-rule:nonzero;fill:rgb(0%,58.799744%,51.799011%);fill-opacity:1;" d="M 355.882813 495.722656 C 356.539063 495.277344 357.128906 494.773438 357.214844 494.421875 C 357.105469 494.195313 356.929688 493.953125 356.699219 493.730469 C 356.457031 493.484375 356.199219 493.308594 355.960938 493.203125 C 355.863281 492.96875 355.8125 492.746094 355.804688 492.554688 C 356.28125 492.71875 356.761719 492.933594 357.234375 493.203125 C 357.800781 493.53125 358.308594 493.910156 358.742188 494.320313 C 358.882813 494.902344 358.953125 495.53125 358.953125 496.1875 C 358.953125 496.730469 358.898438 497.257813 358.804688 497.75 C 358.640625 497.648438 358.476563 497.492188 358.320313 497.289063 C 358.347656 497.027344 358.324219 496.722656 358.238281 496.386719 C 358.152344 496.078125 358.03125 495.804688 357.890625 495.597656 C 357.507813 495.488281 356.664063 495.808594 355.882813 496.207031 C 355.882813 496.121094 355.882813 496.035156 355.882813 495.953125 C 355.882813 495.886719 355.882813 495.808594 355.882813 495.722656 M 353.136719 497.558594 C 352.976563 497.277344 353.070313 496.921875 353.351563 496.765625 C 353.535156 496.65625 353.753906 496.664063 353.929688 496.757813 C 353.785156 496.464844 353.691406 496.179688 353.664063 495.945313 C 353.78125 495.960938 353.902344 495.976563 354.027344 496 C 354.121094 496.191406 354.222656 496.394531 354.339844 496.601563 C 354.515625 496.523438 354.878906 496.328125 355.125 496.191406 C 355.121094 496.34375 355.113281 496.496094 355.105469 496.644531 C 354.902344 496.773438 354.679688 496.914063 354.566406 496.996094 C 354.683594 497.199219 354.808594 497.390625 354.933594 497.566406 C 354.890625 497.6875 354.84375 497.800781 354.804688 497.90625 C 354.609375 497.765625 354.410156 497.542969 354.222656 497.273438 C 354.222656 497.472656 354.117188 497.664063 353.933594 497.769531 C 353.65625 497.933594 353.300781 497.835938 353.136719 497.558594 Z M 353.410156 497.398438 C 353.480469 497.53125 353.644531 497.574219 353.773438 497.5 C 353.902344 497.425781 353.949219 497.261719 353.875 497.132813 C 353.796875 497.003906 353.632813 496.960938 353.503906 497.035156 C 353.382813 497.105469 353.335938 497.269531 353.410156 497.398438 "/>
<path style=" stroke:none;fill-rule:nonzero;fill:rgb(0%,58.799744%,51.799011%);fill-opacity:1;" d="M 355.125 496.203125 C 354.351563 495.804688 353.503906 495.488281 353.121094 495.597656 C 352.980469 495.804688 352.863281 496.078125 352.78125 496.386719 C 352.695313 496.722656 352.671875 497.027344 352.695313 497.289063 C 352.542969 497.492188 352.371094 497.648438 352.214844 497.75 C 352.121094 497.257813 352.0625 496.730469 352.0625 496.1875 C 352.0625 495.53125 352.136719 494.902344 352.273438 494.320313 C 352.714844 493.910156 353.21875 493.53125 353.785156 493.203125 C 354.257813 492.933594 354.738281 492.71875 355.214844 492.554688 C 355.207031 492.746094 355.15625 492.96875 355.054688 493.203125 C 354.8125 493.308594 354.5625 493.484375 354.316406 493.730469 C 354.09375 493.953125 353.910156 494.195313 353.804688 494.421875 C 353.894531 494.769531 354.472656 495.273438 355.125 495.714844 C 355.125 495.804688 355.125 495.886719 355.125 495.953125 C 355.125 496.035156 355.125 496.117188 355.125 496.203125 M 357.878906 497.558594 C 357.71875 497.835938 357.363281 497.933594 357.085938 497.769531 C 356.898438 497.664063 356.796875 497.472656 356.792969 497.273438 C 356.609375 497.542969 356.40625 497.765625 356.21875 497.90625 C 356.171875 497.800781 356.128906 497.6875 356.082031 497.566406 C 356.203125 497.390625 356.328125 497.199219 356.453125 496.996094 C 356.335938 496.910156 356.113281 496.769531 355.898438 496.640625 C 355.894531 496.492188 355.890625 496.339844 355.882813 496.1875 C 356.128906 496.324219 356.5 496.523438 356.679688 496.601563 C 356.792969 496.394531 356.898438 496.191406 356.992188 496 C 357.113281 495.976563 357.238281 495.960938 357.351563 495.945313 C 357.320313 496.179688 357.234375 496.464844 357.09375 496.757813 C 357.261719 496.664063 357.480469 496.65625 357.667969 496.765625 C 357.941406 496.921875 358.035156 497.277344 357.878906 497.558594 Z M 357.609375 497.398438 C 357.683594 497.269531 357.636719 497.105469 357.507813 497.035156 C 357.378906 496.960938 357.214844 497.003906 357.144531 497.132813 C 357.066406 497.261719 357.113281 497.425781 357.238281 497.5 C 357.367188 497.574219 357.53125 497.53125 357.609375 497.398438 "/>
<path style=" stroke:none;fill-rule:nonzero;fill:rgb(0%,58.799744%,51.799011%);fill-opacity:1;" d="M 355.507813 493.449219 C 355.183594 493.449219 354.921875 493.710938 354.921875 494.03125 C 354.921875 494.242188 355.039063 494.429688 355.207031 494.53125 C 354.878906 494.554688 354.589844 494.621094 354.367188 494.710938 C 354.4375 494.804688 354.519531 494.898438 354.597656 494.996094 C 354.8125 494.980469 355.042969 494.96875 355.277344 494.964844 C 355.300781 495.179688 355.3125 495.679688 355.3125 495.953125 C 355.3125 496.96875 355.171875 498.210938 354.824219 498.546875 C 354.574219 498.5625 354.28125 498.53125 353.96875 498.449219 C 353.632813 498.359375 353.359375 498.226563 353.148438 498.070313 C 352.894531 498.105469 352.671875 498.171875 352.507813 498.261719 C 352.890625 498.589844 353.3125 498.898438 353.78125 499.171875 C 354.351563 499.496094 354.933594 499.75 355.507813 499.921875 C 356.074219 499.75 356.65625 499.496094 357.226563 499.171875 C 357.695313 498.898438 358.125 498.589844 358.5 498.261719 C 358.335938 498.171875 358.113281 498.105469 357.859375 498.070313 C 357.648438 498.226563 357.375 498.359375 357.039063 498.449219 C 356.726563 498.53125 356.433594 498.5625 356.183594 498.546875 C 355.835938 498.210938 355.695313 496.96875 355.695313 495.953125 C 355.695313 495.679688 355.707031 495.179688 355.730469 494.964844 C 355.972656 494.96875 356.195313 494.980469 356.410156 494.996094 C 356.492188 494.898438 356.570313 494.804688 356.640625 494.710938 C 356.421875 494.621094 356.128906 494.554688 355.800781 494.53125 C 355.972656 494.429688 356.089844 494.242188 356.089844 494.03125 C 356.089844 493.710938 355.824219 493.449219 355.507813 493.449219 M 355.507813 493.761719 C 355.652344 493.761719 355.769531 493.882813 355.769531 494.03125 C 355.769531 494.179688 355.652344 494.300781 355.507813 494.300781 C 355.355469 494.300781 355.238281 494.179688 355.238281 494.03125 C 355.238281 493.882813 355.355469 493.761719 355.507813 493.761719 "/>
<path style=" stroke:none;fill-rule:evenodd;fill:rgb(0%,58.799744%,51.799011%);fill-opacity:1;" d="M 360.683594 496.210938 C 360.683594 495.066406 361.578125 494.3125 362.605469 494.3125 C 363.644531 494.3125 364.535156 495.070313 364.535156 496.230469 C 364.535156 497.394531 363.644531 498.140625 362.605469 498.140625 C 361.570313 498.140625 360.683594 497.386719 360.683594 496.210938 M 361.4375 496.210938 C 361.4375 497.167969 361.941406 497.78125 362.609375 497.78125 C 363.277344 497.78125 363.785156 497.175781 363.785156 496.230469 C 363.785156 495.289063 363.277344 494.671875 362.609375 494.671875 C 361.941406 494.671875 361.4375 495.28125 361.4375 496.210938 "/>
<path style=" stroke:none;fill-rule:nonzero;fill:rgb(0%,58.799744%,51.799011%);fill-opacity:1;" d="M 372.730469 498.074219 L 373.253906 498.074219 L 373.519531 495.03125 C 373.601563 495.382813 374.574219 498.046875 374.574219 498.046875 L 375.003906 498.046875 C 375.003906 498.046875 376.035156 495.484375 376.148438 495.035156 L 376.386719 498.074219 L 377.0625 498.074219 L 376.699219 494.390625 L 376.058594 494.390625 C 376.058594 494.390625 374.996094 496.96875 374.890625 497.304688 C 374.789063 496.964844 373.8125 494.390625 373.8125 494.390625 L 373.160156 494.390625 "/>
<path style=" stroke:none;fill-rule:nonzero;fill:rgb(0%,58.799744%,51.799011%);fill-opacity:1;" d="M 377.667969 494.390625 L 377.667969 496.675781 C 377.667969 497.296875 377.757813 497.59375 377.996094 497.820313 C 378.242188 498.050781 378.71875 498.179688 379.121094 498.179688 C 379.550781 498.179688 380.058594 498.027344 380.296875 497.792969 C 380.550781 497.527344 380.632813 497.25 380.632813 496.664063 L 380.640625 494.390625 L 380.046875 494.390625 L 380.0625 496.613281 C 380.0625 497.125 379.996094 497.359375 379.816406 497.515625 C 379.6875 497.632813 379.398438 497.691406 379.195313 497.691406 C 378.984375 497.691406 378.6875 497.632813 378.578125 497.519531 C 378.394531 497.351563 378.34375 497.136719 378.34375 496.613281 L 378.359375 494.390625 "/>
<path style=" stroke:none;fill-rule:nonzero;fill:rgb(0%,58.799744%,51.799011%);fill-opacity:1;" d="M 382.089844 498.082031 L 382.765625 498.082031 L 382.765625 494.777344 L 383.773438 494.777344 L 383.773438 494.390625 L 381.085938 494.390625 C 381.085938 494.40625 381.085938 494.777344 381.085938 494.777344 C 381.089844 494.777344 382.089844 494.777344 382.089844 494.777344 "/>
<path style=" stroke:none;fill-rule:evenodd;fill:rgb(0%,58.799744%,51.799011%);fill-opacity:1;" d="M 387.496094 498.082031 L 388.890625 494.390625 L 389.386719 494.390625 L 389.601563 494.949219 L 390.59375 497.566406 L 390.78125 498.082031 L 390.050781 498.082031 L 389.671875 496.945313 L 388.429688 496.945313 C 388.230469 497.511719 388.046875 498.082031 388.046875 498.082031 M 388.550781 496.578125 L 389.53125 496.578125 L 389.058594 495.035156 L 388.550781 496.578125 "/>
<path style=" stroke:none;fill-rule:nonzero;fill:rgb(0%,58.799744%,51.799011%);fill-opacity:1;" d="M 384.273438 494.390625 L 384.273438 496.675781 C 384.273438 497.296875 384.359375 497.59375 384.605469 497.820313 C 384.847656 498.050781 385.324219 498.179688 385.734375 498.179688 C 386.15625 498.179688 386.667969 498.027344 386.902344 497.792969 C 387.15625 497.527344 387.242188 497.25 387.242188 496.664063 L 387.246094 494.390625 L 386.65625 494.390625 L 386.671875 496.613281 C 386.671875 497.125 386.601563 497.359375 386.421875 497.515625 C 386.296875 497.632813 386.011719 497.691406 385.796875 497.691406 C 385.589844 497.691406 385.292969 497.632813 385.183594 497.519531 C 385 497.351563 384.945313 497.136719 384.945313 496.613281 L 384.972656 494.390625 "/>
<path style=" stroke:none;fill-rule:nonzero;fill:rgb(0%,58.799744%,51.799011%);fill-opacity:1;" d="M 365.171875 498.082031 L 367.246094 498.082031 L 367.246094 497.691406 L 365.878906 497.691406 L 365.878906 494.394531 L 365.175781 494.394531 "/>
<path style=" stroke:none;fill-rule:evenodd;fill:rgb(0%,58.799744%,51.799011%);fill-opacity:1;" d="M 368.410156 494.777344 L 368.96875 494.777344 C 369.671875 494.777344 370.171875 495.105469 370.171875 496.125 C 370.171875 497.390625 369.597656 497.691406 368.902344 497.691406 L 368.410156 497.691406 M 367.695313 494.390625 L 367.695313 498.082031 L 369.097656 498.082031 C 370.125 498.082031 370.917969 497.355469 370.917969 496.128906 C 370.917969 495.242188 370.476563 494.433594 369.40625 494.390625 L 367.695313 494.390625 "/>
<path style=" stroke:none;fill-rule:nonzero;fill:rgb(0%,58.799744%,51.799011%);fill-opacity:1;" d="M 391.324219 498.082031 L 393.402344 498.082031 L 393.402344 497.691406 L 392.039063 497.691406 L 392.039063 494.394531 L 391.328125 494.394531 "/>
</g>
</svg>
