<?xml version="1.0" encoding="UTF-8"?>
<svg xmlns="http://www.w3.org/2000/svg" xmlns:xlink="http://www.w3.org/1999/xlink" width="612pt" height="792pt" viewBox="0 0 612 792" version="1.1">
<g id="surface1">
<path style=" stroke:none;fill-rule:nonzero;fill:rgb(100%,100%,100%);fill-opacity:1;" d="M 481.8125 546.28125 L 129.734375 546.28125 L 129.734375 199 L 481.8125 199 L 481.8125 546.28125 "/>
<path style=" stroke:none;fill-rule:nonzero;fill:rgb(0%,65.499878%,50.19989%);fill-opacity:1;" d="M 254.289063 280.472656 L 357.386719 280.472656 L 357.386719 383.566406 L 254.289063 383.566406 L 254.289063 280.472656 "/>
<path style=" stroke:none;fill-rule:nonzero;fill:rgb(100%,100%,100%);fill-opacity:1;" d="M 283.359375 323.089844 C 283.210938 321.136719 282.804688 318.257813 282.308594 315.117188 C 282.03125 313.371094 281.75 311.621094 281.542969 309.875 C 281.140625 306.523438 281.269531 302.628906 281.277344 302.394531 C 281.34375 299.496094 281.296875 294.515625 281.824219 289.621094 C 282.300781 285.230469 283.289063 280.175781 285.78125 276.902344 C 286.164063 271.371094 291.382813 269.179688 295.550781 268.75 C 299.628906 268.335938 304.683594 269.265625 307.652344 271.773438 L 308.085938 271.816406 L 308.738281 272.472656 C 309.117188 272.851563 309.503906 273.160156 309.941406 273.480469 C 310.46875 273.867188 310.96875 274.210938 311.4375 274.59375 C 312.640625 275.570313 313.722656 276.832031 314.394531 278.992188 C 314.394531 278.992188 315.1875 281.648438 315.4375 282.640625 C 315.761719 283.910156 315.992188 285.371094 315.734375 287.246094 L 315.574219 288.410156 L 314.988281 292.375 L 314.726563 292.664063 C 314.261719 294.585938 313.03125 299.109375 311.816406 303.460938 C 311.109375 305.992188 310.40625 308.46875 309.875 310.320313 C 309.644531 311.117188 309.449219 311.796875 309.292969 312.320313 C 310.175781 311.949219 311.0625 311.589844 311.941406 311.246094 C 314.113281 310.40625 316.234375 309.679688 318.4375 309.148438 C 318.578125 308.691406 318.6875 308.253906 318.753906 308.058594 C 321.417969 300 330.933594 281.640625 339.28125 276.953125 L 340.3125 276.375 L 342.507813 277.171875 L 342.957031 277.710938 C 343.503906 278.367188 343.84375 279.101563 344.066406 279.675781 C 344.269531 280.191406 344.429688 280.726563 344.578125 281.203125 L 344.839844 282.019531 L 344.558594 282.832031 C 343.546875 285.746094 342.226563 288.644531 340.980469 291.578125 C 339.8125 294.320313 338.707031 297.097656 338.03125 299.960938 C 337.914063 300.457031 337.742188 300.960938 337.535156 301.46875 C 337.371094 301.871094 337.183594 302.277344 337 302.6875 C 336.648438 303.472656 336.472656 303.941406 336.414063 304.324219 C 336.390625 304.503906 336.355469 304.699219 336.3125 304.898438 C 353.648438 299.925781 390.808594 294.425781 406.820313 294.683594 C 409.085938 294.71875 411.660156 296.433594 411.707031 297.445313 C 411.585938 298.035156 409.621094 299.847656 409.148438 300.367188 C 407.84375 301.808594 392.054688 303.640625 386.320313 305.4375 L 387.644531 306.792969 L 385.835938 308.597656 C 383.808594 310.625 382.460938 311.625 380.75 311.949219 C 380.261719 312.042969 379.769531 312.054688 379.113281 312.132813 C 378.660156 312.191406 378.097656 312.304688 377.3125 312.578125 L 375.96875 313.050781 L 375.429688 312.921875 L 373.371094 313.363281 C 373.105469 313.527344 372.796875 313.671875 372.445313 313.789063 C 371.949219 313.949219 371.289063 314.109375 370.605469 314.246094 C 369.882813 314.390625 369.128906 314.511719 368.5625 314.597656 C 368.226563 314.835938 367.886719 315.007813 367.605469 315.132813 C 367.414063 315.214844 363 316.378906 362.449219 316.492188 L 362.375 317.0625 L 357.984375 318.65625 L 357.847656 318.492188 L 357.734375 318.539063 C 357.011719 318.8125 356.054688 319.160156 355.074219 319.507813 C 354.097656 319.855469 353.101563 320.199219 352.300781 320.46875 C 351.449219 320.753906 350.78125 320.953125 350.476563 321.023438 C 349.820313 321.355469 349.390625 321.488281 349.390625 321.488281 C 348.554688 322.347656 347.492188 322.78125 346.804688 323.011719 C 345.988281 323.285156 345.113281 323.449219 344.40625 323.554688 C 344.207031 323.667969 343.988281 323.773438 343.746094 323.871094 C 343.21875 324.082031 342.515625 324.34375 341.792969 324.605469 C 340.476563 325.085938 339.046875 325.582031 338.753906 325.710938 L 334.738281 327.277344 C 334.617188 327.324219 334.5 327.363281 334.378906 327.394531 L 334.429688 327.40625 C 334.015625 327.746094 332.339844 328.71875 330.789063 329.160156 C 330.769531 329.21875 330.738281 329.289063 330.699219 329.378906 C 330.464844 329.902344 330.21875 330.648438 329.976563 331.621094 C 329.480469 333.621094 329.105469 336.136719 328.824219 338.699219 C 328.242188 343.953125 328.054688 349.414063 328.054688 351.3125 C 328.054688 353.820313 327.371094 356.261719 327.371094 358.757813 C 327.371094 359.894531 327.328125 360.59375 327.144531 361.6875 C 326.984375 362.640625 327.1875 362.402344 326.988281 363.121094 L 326.898438 363.449219 C 326.921875 364.234375 326.996094 365.253906 327.015625 366.230469 C 327.027344 367.070313 327.007813 367.882813 326.921875 368.570313 C 326.882813 368.894531 326.808594 369.359375 326.644531 369.851563 C 326.777344 370.535156 326.871094 371.394531 326.769531 372.277344 C 327.175781 372.867188 326.84375 374.34375 326.367188 374.902344 C 325.988281 380.289063 328.234375 390.351563 330.171875 394.8125 C 330.171875 394.8125 329.953125 396.171875 330.429688 396.175781 C 330.554688 396.566406 330.671875 397.234375 331.109375 397.796875 L 332.796875 399.953125 C 334.363281 401.953125 331.410156 404.941406 329.46875 402.84375 L 327.195313 400.390625 C 326.742188 400.21875 325.613281 400.027344 325.34375 399.851563 C 324.769531 399.480469 324.230469 399.023438 323.773438 398.59375 C 322.878906 397.746094 322.039063 396.753906 321.609375 396.113281 C 312.789063 382.925781 310.113281 371.152344 310.113281 355.417969 L 310.113281 354.082031 C 310.078125 350.765625 310.496094 347.390625 310.738281 344.089844 C 310.894531 341.992188 311.203125 339.785156 311.53125 337.664063 C 309.117188 339.15625 305.855469 340.804688 303.992188 341.707031 C 303.921875 342.160156 303.84375 342.6875 303.773438 343.207031 C 303.703125 343.761719 303.644531 344.308594 303.621094 344.734375 C 303.5625 344.652344 303.195313 348.628906 303.195313 348.628906 C 302.441406 351.347656 301.464844 375.105469 301.433594 379.546875 L 301.378906 387.257813 C 301.375 387.714844 301.355469 388.199219 301.371094 388.679688 C 301.386719 389.097656 301.425781 389.378906 301.480469 389.578125 C 301.523438 389.738281 301.5625 389.949219 301.585938 390.1875 L 302.167969 391.773438 L 301.992188 392.230469 L 302.121094 393.519531 C 302.308594 395.394531 299.277344 401.105469 296.761719 399.695313 C 295.199219 398.820313 292.363281 397.449219 291.902344 396.007813 C 289.117188 387.347656 287.449219 376.550781 286.402344 367.8125 L 285.53125 361.0625 C 285.191406 357.449219 285.066406 353.761719 284.964844 350.097656 C 284.957031 349.769531 285.164063 349.035156 284.007813 349.957031 C 282.953125 350.804688 279.894531 352.417969 277.269531 353.605469 C 277.15625 353.554688 277.191406 353.324219 277.191406 353.324219 C 276.574219 353.664063 275.925781 354.015625 275.285156 354.324219 C 274.367188 354.769531 273.1875 355.269531 271.988281 355.40625 C 271.011719 355.519531 269.785156 355.394531 268.75 354.644531 C 268.132813 354.542969 267.511719 354.410156 266.882813 354.371094 C 265.011719 354.148438 264.242188 352.160156 264.058594 351.703125 C 263.847656 351.179688 263.390625 349.179688 262.992188 348.507813 C 262.464844 339.453125 269.074219 327.425781 275.574219 323.773438 C 276.597656 323.175781 278.121094 322.367188 278.230469 323.464844 C 278.230469 323.464844 278.457031 326.386719 279.472656 325.628906 C 280.371094 324.957031 282.011719 323.964844 283.21875 323.355469 C 283.371094 323.265625 283.363281 323.222656 283.359375 323.089844 "/>
<path style=" stroke:none;fill-rule:nonzero;fill:rgb(32.199097%,17.999268%,56.898499%);fill-opacity:1;" d="M 307.300781 274.773438 L 307.6875 274.8125 C 309.730469 276.863281 311.714844 277.085938 312.714844 280.285156 L 312.882813 280.421875 C 313.273438 282.976563 314.355469 284.519531 313.957031 287.417969 L 313.8125 287.511719 L 313.332031 291.734375 L 313.140625 291.945313 C 312.777344 293.960938 307.390625 313.074219 307.242188 313.246094 C 307.382813 314.109375 307.054688 315.15625 306.792969 315.960938 C 306.308594 315.988281 306.625 316.382813 306.625 316.714844 C 306.625 316.714844 306.390625 317.234375 306.65625 317.101563 C 311.242188 315.160156 315.996094 312.960938 320.886719 311.9375 C 321.414063 311.78125 321.824219 309.867188 321.984375 309.390625 C 324.644531 301.347656 333.914063 283.886719 341.324219 279.726563 C 341.492188 279.632813 341.636719 279.683594 341.75 279.878906 C 342.335938 280.585938 342.628906 281.652344 342.898438 282.503906 C 340.910156 288.226563 337.71875 293.875 336.300781 299.890625 C 335.949219 301.371094 334.867188 302.90625 334.640625 304.472656 C 334.507813 305.398438 334.050781 306.867188 333.691406 307.734375 L 333.4375 308.234375 L 333.691406 308.40625 C 351.554688 303.492188 391.136719 297.519531 407.5625 297.785156 C 408.164063 297.792969 408.515625 298.023438 408.605469 298.480469 L 408.519531 298.578125 L 406.753906 299.019531 C 406.730469 299.269531 406.429688 299.546875 406.273438 299.714844 C 404.9375 299.335938 403.9375 300.855469 402.621094 300.46875 L 402.535156 300.5625 C 396.640625 301.078125 386.527344 303.058594 381.058594 305.128906 C 380.675781 305.273438 379.605469 305.488281 379.484375 305.980469 L 378.558594 306.324219 L 378.609375 306.558594 L 378.644531 306.421875 C 378.777344 306.390625 379.265625 306.347656 379.3125 306.558594 C 381.042969 306.375 382.953125 306.683594 384.625 307.117188 L 384.792969 307.289063 C 380.808594 311.269531 381.316406 309.230469 377.238281 310.664063 L 377.066406 310.527344 L 375.523438 310.953125 L 375.4375 311.050781 L 373.140625 311.4375 C 373.058594 311.996094 368.847656 312.59375 368.199219 312.667969 C 367.453125 313.71875 364.902344 313.753906 363.675781 314.25 C 363.71875 314.605469 362.988281 314.539063 362.636719 314.5 C 362.371094 314.472656 362.09375 314.71875 361.992188 314.960938 L 362.269531 315.15625 L 359.578125 316.136719 C 359.421875 315.949219 358.710938 316.628906 358.820313 316.136719 C 358.683594 316.316406 351.453125 318.882813 350.679688 319.03125 L 350.53125 319.199219 L 348.628906 319.777344 C 347.992188 321.035156 345.695313 321.402344 344.441406 321.574219 C 344.351563 321.816406 339.160156 323.574219 338.546875 323.847656 L 334.585938 325.390625 C 334.105469 325.574219 333.644531 326.113281 333.574219 325.929688 C 333.113281 326.308594 330.835938 327.390625 330.210938 327.320313 C 327.027344 329.488281 326.253906 347.957031 326.253906 351.832031 C 326.253906 354.339844 325.570313 356.78125 325.570313 359.277344 C 325.570313 360.246094 325.535156 360.847656 325.378906 361.78125 C 325.25 362.554688 325.445313 362.367188 325.28125 362.949219 L 325.101563 363.070313 C 325.011719 364.746094 325.617188 369.003906 324.707031 370.085938 C 324.960938 370.980469 325.191406 372.28125 324.816406 373.1875 C 324.894531 373.117188 325.003906 373.382813 324.816406 373.417969 C 323.625 378.988281 326.378906 391.273438 328.582031 396.359375 C 328.257813 396.355469 328.683594 397.277344 328.753906 397.492188 C 329.015625 398.300781 329.574219 399.183594 330.09375 399.847656 L 329.871094 400 L 328.605469 398.636719 C 327.355469 398.585938 325.136719 396.097656 324.539063 395.199219 C 316.0625 382.523438 313.480469 371.277344 313.480469 355.9375 L 313.585938 355.859375 C 313.414063 352.175781 313.824219 348.472656 314.097656 344.800781 C 314.277344 342.320313 314.6875 339.683594 315.074219 337.222656 L 315.554688 334.257813 L 315.558594 333.902344 C 314.546875 333.902344 313.707031 334.71875 312.742188 335.027344 L 312.660156 335.21875 C 312.269531 335.578125 303.453125 340.082031 302.496094 340.445313 C 302.269531 341.261719 301.027344 347.683594 301.488281 348.460938 C 300.617188 351.59375 299.660156 375.789063 299.632813 380.050781 L 299.578125 387.761719 C 299.570313 388.738281 299.507813 389.828125 299.769531 390.785156 C 299.8125 390.945313 300.199219 391.371094 299.914063 391.519531 L 300.03125 392.246094 C 300.675781 394 299.035156 397.253906 298.027344 397.128906 C 297.023438 397.007813 295.417969 396.335938 295.140625 395.726563 C 292.414063 387.40625 290.789063 376.746094 289.75 368.023438 C 289.585938 367.726563 289.648438 367.269531 289.636719 367.175781 L 288.882813 361.296875 C 288.40625 356.320313 288.363281 351.246094 288.203125 346.246094 C 288.195313 346.113281 288.15625 346.085938 288.0625 346.128906 C 285.132813 347.394531 282.597656 349.171875 279.726563 350.503906 L 279.613281 350.097656 L 279.558594 350.292969 C 277.410156 350.699219 272.359375 355.023438 270.6875 352.699219 C 269.722656 352.660156 268.226563 352.507813 267.816406 352.316406 C 266.785156 351.832031 266.285156 347.808594 265.824219 347.324219 C 265.824219 340.835938 271.992188 329.710938 277.617188 326.542969 C 278.59375 325.929688 277.796875 330.773438 279.28125 329.730469 C 281.570313 328.117188 283.453125 326.796875 286.234375 325.699219 C 286.296875 325.675781 286.335938 325.621094 286.351563 325.542969 C 286.992188 318.617188 284.378906 311.847656 284.640625 304.9375 C 284.472656 304.945313 284.515625 304.652344 284.640625 304.710938 L 284.640625 303.511719 C 284.363281 303.402344 284.636719 303.121094 284.640625 302.972656 C 284.769531 297.273438 284.433594 283.390625 289.132813 278.378906 C 288.800781 270.132813 303.304688 270.390625 307.300781 274.773438 "/>
<path style=" stroke:none;fill-rule:nonzero;fill:rgb(32.199097%,17.999268%,56.898499%);fill-opacity:1;" d="M 305.257813 441.414063 L 317.773438 441.414063 L 317.773438 404.59375 L 305.257813 404.59375 L 305.257813 441.414063 "/>
<path style=" stroke:none;fill-rule:nonzero;fill:rgb(32.199097%,17.999268%,56.898499%);fill-opacity:1;" d="M 349.144531 436.40625 C 347.398438 438.929688 337.789063 441.402344 337.789063 434.425781 C 337.789063 428.933594 349.078125 427.6875 349.144531 427.675781 Z M 361.667969 437.390625 L 361.683594 424.425781 C 361.683594 418.148438 352.292969 415.492188 345.074219 415.492188 C 335.722656 415.492188 332.386719 417.675781 329.933594 419.46875 L 331.449219 421.648438 C 331.449219 421.648438 335.242188 418.730469 339.765625 418.730469 C 344.28125 418.730469 349.285156 420.730469 349.285156 423.777344 C 349.285156 428.847656 326.324219 425.1875 326.324219 435.660156 C 326.324219 441.007813 332.894531 442.339844 337.179688 442.339844 C 346.113281 442.339844 349.769531 438.667969 349.769531 438.667969 C 351.148438 440.5625 354.488281 442.371094 358.035156 442.371094 C 362.371094 442.371094 365.65625 440.9375 365.65625 440.9375 C 363.164063 440.160156 361.664063 439.472656 361.667969 437.390625 "/>
<path style=" stroke:none;fill-rule:nonzero;fill:rgb(32.199097%,17.999268%,56.898499%);fill-opacity:1;" d="M 424.601563 439.605469 C 419.71875 439.605469 415.757813 434.878906 415.757813 429.046875 C 415.757813 423.214844 419.71875 418.488281 424.601563 418.488281 C 429.488281 418.488281 433.445313 423.214844 433.445313 429.046875 C 433.445313 434.878906 429.488281 439.605469 424.601563 439.605469 Z M 432.527344 404.59375 L 432.527344 419.296875 C 429.429688 416.980469 425.226563 415.558594 420.597656 415.558594 C 411.066406 415.558594 403.339844 421.597656 403.339844 429.046875 C 403.339844 436.496094 411.066406 442.539063 420.597656 442.539063 C 425.226563 442.539063 429.429688 441.113281 432.527344 438.796875 L 432.527344 441.414063 L 445.046875 441.414063 L 445.046875 404.59375 L 432.527344 404.59375 "/>
<path style=" stroke:none;fill-rule:nonzero;fill:rgb(32.199097%,17.999268%,56.898499%);fill-opacity:1;" d="M 385.3125 421.601563 L 385.3125 416.25 L 372.796875 416.25 L 372.796875 441.414063 L 385.3125 441.414063 L 385.3125 425.785156 C 386.933594 422.714844 393.617188 421.980469 399.042969 422.777344 L 399.042969 415.492188 C 392.9375 415.492188 388.429688 418.097656 385.3125 421.601563 "/>
<path style=" stroke:none;fill-rule:nonzero;fill:rgb(32.199097%,17.999268%,56.898499%);fill-opacity:1;" d="M 206.699219 419.367188 L 179.171875 419.367188 L 179.171875 404.59375 L 166.652344 404.59375 L 166.652344 441.414063 L 179.171875 441.414063 L 179.171875 423.785156 L 206.699219 423.785156 L 206.699219 441.414063 L 219.21875 441.414063 L 219.21875 404.59375 L 206.699219 404.59375 L 206.699219 419.367188 "/>
<path style=" stroke:none;fill-rule:nonzero;fill:rgb(32.199097%,17.999268%,56.898499%);fill-opacity:1;" d="M 281.605469 441.414063 L 294.128906 441.414063 L 294.128906 404.59375 L 281.605469 404.59375 L 281.605469 441.414063 "/>
<path style=" stroke:none;fill-rule:nonzero;fill:rgb(32.199097%,17.999268%,56.898499%);fill-opacity:1;" d="M 251.601563 439.890625 C 245.316406 439.890625 242.570313 434.953125 242.570313 428.863281 C 242.570313 422.773438 245.316406 417.835938 251.601563 417.835938 C 257.890625 417.835938 260.632813 422.773438 260.632813 428.863281 C 260.632813 434.953125 257.890625 439.890625 251.601563 439.890625 Z M 251.59375 415.492188 C 239.511719 415.492188 229.710938 419.84375 229.710938 428.863281 C 229.710938 437.882813 239.511719 442.234375 251.59375 442.234375 C 263.675781 442.234375 273.480469 437.882813 273.480469 428.863281 C 273.480469 419.84375 263.675781 415.492188 251.59375 415.492188 "/>
<path style=" stroke:none;fill-rule:evenodd;fill:rgb(0%,65.499878%,50.19989%);fill-opacity:1;" d="M 166.652344 451.722656 L 445.046875 451.722656 L 445.046875 462.03125 L 166.652344 462.03125 L 166.652344 451.722656 "/>
</g>
</svg>
