<?xml version="1.0" encoding="utf-8"?>
<!-- Generator: Adobe Illustrator 19.2.1, SVG Export Plug-In . SVG Version: 6.00 Build 0)  -->
<svg version="1.1" id="layer" xmlns="http://www.w3.org/2000/svg" xmlns:xlink="http://www.w3.org/1999/xlink" x="0px" y="0px"
	 viewBox="0 0 652 652" style="enable-background:new 0 0 652 652;" xml:space="preserve">
<style type="text/css">
	.st0{fill:#FFC621;}
	.st1{fill:#003976;}
</style>
<path class="st0" d="M345,220.6v-6.7h-26.8v6.4c-107.6,1.9-206.4,38.6-284.9,98.9c0,0,12.1-6.2,24.3-10.1
	c64.5-20.2,127.4-15.7,166.9,9.4c27.6-13.8,62.4-22,102.6-22.1c40.2,0.1,75,8.3,102.6,22.1c39.6-25.1,102.4-29.7,166.9-9.4
	c12.2,3.8,24.3,10.1,24.3,10.1C544.6,260.6,449.1,224.4,345,220.6"/>
<path class="st1" d="M357.5,412.3c-3.5,0-9.8-1.4-11.4-10.4c-0.3-1.7-0.5-4-0.5-6.8v-34.2h19.1v-20.8h-18.6l0.1-32h-25.9l0,90.9
	c0,3.4,0.3,6.8,0.9,10c1.3,6.8,4.1,12.4,8.4,16.6c3.7,3.7,7.5,6.2,11.4,7.5c3.9,1.4,7.8,2,11.6,2c8.3,0,15.9-2.1,22.7-6.2l-2.8-22.2
	C367.1,410.4,362.1,412.3,357.5,412.3 M254.7,364.9c3.3-2.5,7-3.8,10.8-3.8c4,0,10.7,1.5,12.2,11.5c0.3,1.6,0.4,2.9,0.3,3.8l-0.1,57
	h25.8l0-55.1c-0.2-4.9-0.4-8.5-0.6-10.3c-1-6.7-3.8-13-8.4-18.7c-4.3-5.4-10.8-8-19.8-8c-6,0-10.8,1-14.4,3
	c-3.9,2.2-8.4,5.3-13.4,9.3l-4.7,3.7l0-14.4h-25.6l0,90.4h25.5V377l0.8-0.8C247.8,370.9,251.7,367.1,254.7,364.9 M469.8,433.5V344
	c-6.1-1-10.7-1.6-14-2c-3.7-0.4-8.6-0.7-14.3-0.7c-13.6,0-24.9,1.8-33.5,5.3c-8.4,3.5-14.8,8-18.8,13.5c-4.1,5.5-6.7,11.4-7.7,17.4
	c-1,6.2-1.1,12.3-0.2,18.2c1,7.1,3.4,13.7,6.9,19.7c3.5,6,8,10.8,13.4,14.3c5.3,3.5,11.1,5.2,17.3,5.2c4.8,0,8.6-0.8,11.3-2.4
	c2.9-1.7,5.9-4.2,8.9-7.2l5-5.1l0,12.9H469.8z M443.1,407.8c-3.5,2.5-7,5.1-9.7,6.2c-2.7,1.2-5.3,1.8-7.8,1.8
	c-4.9,0-9.1-1.8-12.3-5.6c-3-3.5-4.9-7.7-5.6-12.6c-1-6.8-0.5-13.2,1.5-19.1c2-6,5.4-10.8,10-14.4c4.7-3.6,10.3-5.4,16.6-5.4h8.7
	l0,47.9L443.1,407.8z M599.9,372.5c0.3,1.9,0.4,4.3,0.4,7.1l0,53.8H626v-53.2c0-6-0.2-10.4-0.6-12.7c-1-6.3-3.8-12.4-8.5-18.1
	c-4.5-5.3-11.9-8.1-22-8.1c-4.2,0-7.9,0.7-11.1,2c-3.4,1.4-6.3,3-8.6,4.9c-2.4,2-4.6,4-6.4,6.1l-2.5,3l-2.2-3.3
	c-5.5-8.6-12.9-12.8-22.8-12.8c-5.1,0-9.9,1.2-14.1,3.7c-4.4,2.5-7.9,5.3-10.4,8.2l-5,5.9l0-16.2h-25.4l0,90.4h25.3l0.1-59.1
	l0.7-0.8c3.9-4.4,7.1-7.6,9.9-9.7c3.1-2.4,6.4-3.6,9.7-3.6c3.4,0,6,1,7.7,3.1c1.5,1.8,2.5,4.4,3.1,7.6c0.3,1.7,0.4,5.4,0.4,11.5
	l0,50.9h25.4l-0.1-61.2l0.8-0.9c7.3-7.4,13.6-11,19.1-11C592.1,360.1,598.3,361.7,599.9,372.5 M200.3,433.4l0-89.4
	c-6.1-1-10.7-1.6-14-2c-3.7-0.4-8.5-0.6-14.3-0.6c-13.5,0-24.8,1.8-33.5,5.3c-8.5,3.5-14.8,8-18.9,13.5c-4.1,5.5-6.7,11.4-7.7,17.4
	c-1.1,6.2-1.1,12.3-0.2,18.2c1.1,7.1,3.4,13.7,6.9,19.7c3.5,6,8.1,10.8,13.5,14.3c5.3,3.5,11.1,5.2,17.3,5.2c4.8,0,8.6-0.8,11.3-2.4
	c2.9-1.7,5.9-4.1,8.9-7.1l5-5l0,12.8H200.3z M173.9,407.7c-4.6,3.4-7.7,5.3-10,6.2c-2.7,1.2-5.3,1.8-7.7,1.8
	c-4.9,0-9.1-1.9-12.3-5.6c-3-3.5-4.9-7.7-5.6-12.6c-1-6.8-0.5-13.2,1.5-19.1c2-6,5.4-10.9,10.1-14.4c4.7-3.6,10.2-5.4,16.5-5.4h8.8
	l0.1,48.1L173.9,407.7z M97.7,423c3.2-4.6,4.9-10.2,4.9-16.5c0-5.7-1.3-10.4-3.9-14.1c-2.7-3.9-6.5-7.3-11.2-10.3
	c-5-3.1-11.8-6.7-20.2-10.6c-5.1-2.4-8.5-4.4-10.5-6.2c-2.4-2.1-3.7-4.7-3.7-7.6c0-3.1,1.3-5.8,3.7-7.8c2.4-2,5.9-3,10.7-3
	c6.7,0,13,1.4,18.9,4.1c4.1,1.8,7.9,4,11.5,6.2v-19.7c-1-0.6-2.7-1.4-5.5-2.6c-3.3-1.4-7.4-2.7-12.5-3.9c-5-1.1-10.6-1.7-16.6-1.7
	c-8.2,0-15.3,1.4-20.9,4.1c-5.5,2.6-9.7,6.2-12.3,10.5c-2.7,4.4-4,9.4-4,14.8c0,5.6,1.3,10.6,3.9,14.6c2.7,4.2,6.2,7.8,10.4,10.5
	c4.4,2.9,9.7,5.7,15.6,8.1c5.6,2.2,10,4.4,13,6.6c3.6,2.5,5.4,5.8,5.4,9.6c0,2.3-1.1,4.6-3.2,7c-2.2,2.5-6.5,3.7-12.9,3.7
	c-6.5,0-12.7-1.2-18.4-3.6c-4.2-1.8-8.6-4-13-6.5v20.9c5.3,2.2,10.4,3.9,15.3,5.1c5.4,1.3,9.7,2.1,12.9,2.4c3.2,0.3,5.9,0.4,8.1,0.4
	c7.8,0,14.8-1.3,20.8-3.8C89.8,431.2,94.4,427.6,97.7,423"/>
</svg>
